<mxfile host="app.diagrams.net" modified="2023-08-02T11:52:49.138Z" agent="Mozilla/5.0 (Macintosh; Intel Mac OS X 10_15_7) AppleWebKit/605.1.15 (KHTML, like Gecko) Version/15.3 Safari/605.1.15" etag="Lt3cQIjwGUqDWe8ADNVV" version="21.6.6" type="github">
  <diagram name="Page-1" id="55a83fd1-7818-8e21-69c5-c3457e3827bb">
    <mxGraphModel dx="371" dy="652" grid="1" gridSize="10" guides="1" tooltips="1" connect="1" arrows="1" fold="1" page="1" pageScale="1" pageWidth="1100" pageHeight="850" background="none" math="0" shadow="0">
      <root>
        <mxCell id="0" />
        <mxCell id="1" parent="0" />
        <mxCell id="XPc6Ffc4i0sNHEjpUY4e-15" value="" style="rounded=1;whiteSpace=wrap;html=1;" vertex="1" parent="1">
          <mxGeometry x="390" y="360" width="130" height="40" as="geometry" />
        </mxCell>
        <mxCell id="XPc6Ffc4i0sNHEjpUY4e-16" value="" style="rounded=1;whiteSpace=wrap;html=1;" vertex="1" parent="1">
          <mxGeometry x="390" y="440" width="130" height="40" as="geometry" />
        </mxCell>
        <mxCell id="XPc6Ffc4i0sNHEjpUY4e-17" value="" style="ellipse;whiteSpace=wrap;html=1;aspect=fixed;" vertex="1" parent="1">
          <mxGeometry x="521" y="354" width="50" height="50" as="geometry" />
        </mxCell>
        <mxCell id="XPc6Ffc4i0sNHEjpUY4e-18" value="" style="ellipse;whiteSpace=wrap;html=1;aspect=fixed;" vertex="1" parent="1">
          <mxGeometry x="521" y="435" width="50" height="50" as="geometry" />
        </mxCell>
        <mxCell id="XPc6Ffc4i0sNHEjpUY4e-19" value="" style="ellipse;whiteSpace=wrap;html=1;aspect=fixed;" vertex="1" parent="1">
          <mxGeometry x="260" y="390" width="50" height="50" as="geometry" />
        </mxCell>
        <mxCell id="XPc6Ffc4i0sNHEjpUY4e-20" value="" style="endArrow=classic;html=1;rounded=0;entryX=0;entryY=0.5;entryDx=0;entryDy=0;exitX=1;exitY=0.32;exitDx=0;exitDy=0;exitPerimeter=0;" edge="1" parent="1" source="XPc6Ffc4i0sNHEjpUY4e-19" target="XPc6Ffc4i0sNHEjpUY4e-15">
          <mxGeometry width="50" height="50" relative="1" as="geometry">
            <mxPoint x="300" y="400" as="sourcePoint" />
            <mxPoint x="360" y="360" as="targetPoint" />
          </mxGeometry>
        </mxCell>
        <mxCell id="XPc6Ffc4i0sNHEjpUY4e-21" value="" style="endArrow=classic;html=1;rounded=0;exitX=0.937;exitY=0.724;exitDx=0;exitDy=0;entryX=0;entryY=0.5;entryDx=0;entryDy=0;exitPerimeter=0;" edge="1" parent="1" source="XPc6Ffc4i0sNHEjpUY4e-19" target="XPc6Ffc4i0sNHEjpUY4e-16">
          <mxGeometry width="50" height="50" relative="1" as="geometry">
            <mxPoint x="390" y="580" as="sourcePoint" />
            <mxPoint x="440" y="530" as="targetPoint" />
          </mxGeometry>
        </mxCell>
        <mxCell id="XPc6Ffc4i0sNHEjpUY4e-23" value="" style="rounded=1;whiteSpace=wrap;html=1;" vertex="1" parent="1">
          <mxGeometry x="500" y="365" width="14" height="30" as="geometry" />
        </mxCell>
        <mxCell id="XPc6Ffc4i0sNHEjpUY4e-35" value="" style="rounded=1;whiteSpace=wrap;html=1;" vertex="1" parent="1">
          <mxGeometry x="480" y="365" width="14" height="30" as="geometry" />
        </mxCell>
        <mxCell id="XPc6Ffc4i0sNHEjpUY4e-38" value="" style="rounded=1;whiteSpace=wrap;html=1;" vertex="1" parent="1">
          <mxGeometry x="460" y="365" width="14" height="30" as="geometry" />
        </mxCell>
        <mxCell id="XPc6Ffc4i0sNHEjpUY4e-39" value="" style="rounded=1;whiteSpace=wrap;html=1;" vertex="1" parent="1">
          <mxGeometry x="460" y="445" width="14" height="30" as="geometry" />
        </mxCell>
        <mxCell id="XPc6Ffc4i0sNHEjpUY4e-40" value="" style="rounded=1;whiteSpace=wrap;html=1;" vertex="1" parent="1">
          <mxGeometry x="500" y="445" width="14" height="30" as="geometry" />
        </mxCell>
        <mxCell id="XPc6Ffc4i0sNHEjpUY4e-41" value="" style="rounded=1;whiteSpace=wrap;html=1;" vertex="1" parent="1">
          <mxGeometry x="480" y="445" width="14" height="30" as="geometry" />
        </mxCell>
      </root>
    </mxGraphModel>
  </diagram>
</mxfile>
